<svg width="150" height="40" viewBox="0 0 150 40" fill="none" xmlns="http://www.w3.org/2000/svg">
    <g>
        <!-- Whale icon - more minimalist version -->
        <circle cx="20" cy="20" r="12" fill="white" fill-opacity="0.95"/>
        <circle cx="20" cy="20" r="6" fill="#0a0a0f"/>
        
        <!-- Text part - BLUVVH -->
        <g fill="white" fill-opacity="0.95">
            <!-- B -->
            <path d="M45 12H55C57 12 59 14 59 17C59 20 57 22 55 22H45V12Z" stroke="white" stroke-width="2"/>
            <path d="M45 17H55" stroke="white" stroke-width="2"/>
            <!-- L -->
            <path d="M65 12V27" stroke="white" stroke-width="2"/>
            <path d="M65 27H72" stroke="white" stroke-width="2"/>
            <!-- U -->
            <path d="M78 12V24C78 25.6569 79.3431 27 81 27H84C85.6569 27 87 25.6569 87 24V12" stroke="white" stroke-width="2"/>
            <!-- V -->
            <path d="M93 12L97 27L101 12" stroke="white" stroke-width="2"/>
            <!-- V -->
            <path d="M107 12L111 27L115 12" stroke="white" stroke-width="2"/>
            <!-- H -->
            <path d="M121 12V27" stroke="white" stroke-width="2"/>
            <path d="M121 19.5H128" stroke="white" stroke-width="2"/>
            <path d="M128 12V27" stroke="white" stroke-width="2"/>
        </g>
    </g>
</svg>
